<svg width="171" height="34" viewBox="0 0 171 34" fill="none" xmlns="http://www.w3.org/2000/svg">
<path d="M139.547 16.3596C139.49 16.1776 139.341 16.0392 139.155 15.9959L133.024 14.5642L136.123 2.66083C136.185 2.42081 136.076 2.16907 135.859 2.05039C135.641 1.93154 135.37 1.97671 135.202 2.15939L122.056 16.4737C121.93 16.6118 121.883 16.8059 121.934 16.9864C121.986 17.1668 122.126 17.3079 122.307 17.3589L128.536 19.1233L125.367 31.0309C125.307 31.2572 125.399 31.4963 125.596 31.6237C125.608 31.6312 125.62 31.6384 125.632 31.6451C125.852 31.764 126.124 31.7167 126.291 31.5308L139.434 16.8827C139.562 16.7407 139.605 16.5417 139.547 16.3596Z" fill="#D9FF40"/>
<path d="M38.9692 9.64385L33.0204 24.3764H24.8176L28.1638 16.0806L20.9834 21.0534H15.8712L11.7582 14.5237L12.037 17.7073L9.34146 24.3764H1.16187L7.11066 9.64385H15.1276L20.0539 17.0101L30.9523 9.64385H38.9692ZM65.6622 11.4796L60.457 24.3764H52.2774L54.1596 19.6824H44.9576L43.0521 24.3764H34.8725L40.0777 11.4796L45.9336 9.64385H61.2935L65.6622 11.4796ZM57.1108 12.4091H45.2597L47.444 13.5477L46.073 16.9172H55.275L57.1108 12.4091ZM91.8755 12.4091H80.5588L82.7199 13.5477L78.3513 24.3764H70.1484L75.0051 12.4091H66.291L67.4064 9.64385H92.9909L91.8755 12.4091ZM116.023 24.3764H107.449L104.614 19.4036H99.1063L97.0847 24.3764H88.9051L94.8539 9.64385H115.326L119.695 11.4796L117.324 17.3819L112.816 18.7994L116.023 24.3764ZM111.143 12.4091H99.2922L101.477 13.5477L100.222 16.6383H109.424L111.143 12.4091ZM160.839 9.66709H170.645L158.469 17.0334L164.696 24.3996H154.89L152.287 19.6592L145.874 24.3996H136.044L148.221 17.0101L141.993 9.66709H151.823L153.821 13.3154L152.659 15.6624L160.839 9.66709Z" fill="black"/>
</svg>
